<svg xmlns="http://www.w3.org/2000/svg" viewBox="0 0 512 512" width="512" height="512">
  <defs>
    <!-- Messenger gradient -->
    <linearGradient id="messengerGradient" x1="0%" y1="0%" x2="100%" y2="100%">
      <stop offset="0%" style="stop-color:#0099FF"/>
      <stop offset="50%" style="stop-color:#0068FF"/>
      <stop offset="100%" style="stop-color:#A033FF"/>
    </linearGradient>
  </defs>

  <!-- Minimalistic Pixelated Messenger Logo -->

  <!-- Main rounded square background -->
  <rect x="80" y="80" width="352" height="352" rx="80" fill="url(#messengerGradient)"/>

  <!-- Simple pixel chat bubble / messenger icon -->
  <!-- Outer bubble (pixel blocks) -->
  <rect x="160" y="160" width="192" height="32" fill="white"/>
  <rect x="128" y="192" width="256" height="96" fill="white"/>
  <rect x="160" y="288" width="192" height="32" fill="white"/>

  <!-- Chat tail -->
  <rect x="192" y="320" width="32" height="32" fill="white"/>
  <rect x="224" y="352" width="32" height="32" fill="white"/>

  <!-- Lightning bolt inside (simple pixel version) -->
  <rect x="232" y="208" width="16" height="16" fill="#0068FF"/>
  <rect x="248" y="208" width="16" height="16" fill="#0068FF"/>
  <rect x="248" y="224" width="16" height="16" fill="#0068FF"/>
  <rect x="264" y="224" width="16" height="16" fill="#0068FF"/>

  <rect x="216" y="224" width="16" height="16" fill="#0068FF"/>
  <rect x="216" y="240" width="16" height="16" fill="#0068FF"/>
  <rect x="200" y="240" width="16" height="16" fill="#0068FF"/>
  <rect x="200" y="256" width="16" height="16" fill="#0068FF"/>
</svg>
